<?xml version="1.0" encoding="UTF-8" standalone="no"?>
<!-- Creator: CorelDRAW -->

<svg
   xml:space="preserve"
   width="14.831797mm"
   height="14.346634mm"
   version="1.1"
   style="clip-rule:evenodd;fill-rule:evenodd;image-rendering:optimizeQuality;shape-rendering:geometricPrecision;text-rendering:geometricPrecision"
   viewBox="0 0 1477.6224 1429.2934"
   id="svg8"
   sodipodi:docname="logo-iz.svg"
   inkscape:export-filename="logo-iz-white.png"
   inkscape:export-xdpi="96"
   inkscape:export-ydpi="96"
   xmlns:inkscape="http://www.inkscape.org/namespaces/inkscape"
   xmlns:sodipodi="http://sodipodi.sourceforge.net/DTD/sodipodi-0.dtd"
   xmlns="http://www.w3.org/2000/svg"
   xmlns:svg="http://www.w3.org/2000/svg"><sodipodi:namedview
   id="namedview8"
   pagecolor="#ffffff"
   bordercolor="#000000"
   borderopacity="0.25"
   inkscape:showpageshadow="2"
   inkscape:pageopacity="0.0"
   inkscape:pagecheckerboard="0"
   inkscape:deskcolor="#d1d1d1"
   inkscape:document-units="mm"
   showgrid="false" />
 <defs
   id="defs1"><style
     type="text/css"
     id="style1">
   <![CDATA[
    .fil0 {fill:#00763A}
    .fil1 {fill:#AF9B6F}
    .fil2 {fill:#00763A;fill-rule:nonzero}
    .fil3 {fill:#AF9B6F;fill-rule:nonzero}
   ]]>
  </style></defs>
 <g
   id="Layer_x0020_1"
   inkscape:label="Layer 1"
   inkscape:groupmode="layer"
   transform="translate(-0.03934743,0.0105113)">
  <metadata
   id="CorelCorpID_0Corel-Layer" />
  
  
  
  
  
  <g
   id="g8"
   style="fill:#ffffff;fill-opacity:1"><path
     class="fil0"
     d="M 1114.77,1302.07 C 919.54,1329.31 749.45,1358.17 549.29,1197.14 228.79,939.32 245.1,472.58 551.66,233.62 708.16,111.62 887.43,76.34 1115.24,133.08 1078.04,65.51 865.31,8.9 767.39,1.88 610.75,-9.34 478.64,30.54 366.55,90.78 c -432.35,232.35 -536.13,909.26 -15.7,1241.71 258.16,164.9 681,94.97 763.93,-30.43 z"
     id="path1"
     style="fill:#ffffff;fill-opacity:1" /><path
     class="fil1"
     d="m 953.21,359 c -0.74,86.56 8.25,226.16 -11.45,301.19 109.77,-19.54 78.85,-185.5 84.87,-257.64 7.96,3.62 15.23,17.38 34.77,4.28 l -41.37,-82.84 c -35.81,7.58 -43.86,13.58 -66.82,35.01 z"
     id="path2"
     style="fill:#ffffff;fill-opacity:1" /><path
     class="fil1"
     d="m 1357.6,924.28 c 31.92,13.94 59.52,32.9 96.37,43.46 l 23.67,-63.97 c -40.79,-69.29 -113.71,-149.94 -152.45,-219.16 -12.78,-22.86 -4.84,-14.47 -19.03,-30.13 -51.01,87.44 23.49,176.61 81.66,240.46 -5.45,22.75 13.7,2.19 -30.23,29.34 z"
     id="path3"
     style="fill:#ffffff;fill-opacity:1" /><path
     class="fil1"
     d="m 1123.15,538.07 c 134,50 83.79,39.45 227.02,-2.84 25.63,-7.56 28.96,-7.27 40.29,2.76 l 10.23,13.92 c 1.36,1.75 3.11,5.67 5.09,8.21 23.27,-49.59 36.64,-33.85 61.47,-81.82 l -41.7,-36.75 c -19.15,2.22 -276.15,74.37 -302.39,96.53 z"
     id="path4"
     style="fill:#ffffff;fill-opacity:1" /><path
     class="fil1"
     d="m 729.57,771.97 c 65.85,15.47 258.39,77.16 286.27,104.93 10.98,-98.24 -113.66,-130.96 -204.79,-154.55 l -10.53,-34.43 -79.08,10.5 z"
     id="path5"
     style="fill:#ffffff;fill-opacity:1" /><path
     class="fil1"
     d="m 1151.61,980.97 c 14.97,-20.79 30.87,-44.56 44.12,-61.37 18.51,-23.45 34.03,-31.19 47.47,-55.83 -73.13,-1.22 -98.77,13.58 -133.36,54.81 -30.56,36.42 -58.66,70.23 -81.37,113.08 l -26,-33.48 -14.82,105.24 65.69,5.55 98.27,-128.01 z"
     id="path6"
     style="fill:#ffffff;fill-opacity:1" /></g>
  
  
 </g>
</svg>
